<svg xmlns="http://www.w3.org/2000/svg" xmlns:xlink="http://www.w3.org/1999/xlink" width="37" height="36" viewBox="0 0 37 36">
    <defs>
        <linearGradient id="vkyubtb09c" x1="50%" x2="50%" y1="0%" y2="98.711%">
            <stop offset="0%" stop-color="#595761"/>
            <stop offset="100%" stop-color="#6E7587"/>
        </linearGradient>
        <filter id="n9rcn1frpa" width="200.7%" height="200.6%" x="-50.4%" y="-50.3%" filterUnits="objectBoundingBox">
            <feOffset in="SourceAlpha" result="shadowOffsetOuter1"/>
            <feGaussianBlur in="shadowOffsetOuter1" result="shadowBlurOuter1" stdDeviation="4.5"/>
            <feColorMatrix in="shadowBlurOuter1" values="0 0 0 0 0.364705882 0 0 0 0 0.349019608 0 0 0 0 0.415686275 0 0 0 0.7 0"/>
        </filter>
        <rect id="pp6926bv3b" width="26.8" height="26.837" x="0" y="0" rx="13.4"/>
    </defs>
    <g fill="none" fill-rule="evenodd" transform="translate(4.853 4.63)">
        <use fill="#000" filter="url(#n9rcn1frpa)" xlink:href="#pp6926bv3b"/>
        <use fill="url(#vkyubtb09c)" xlink:href="#pp6926bv3b"/>
        <path fill="#FFF" d="M13.4 19.68c3.454 0 6.253-2.803 6.253-6.262 0-3.458-2.8-6.262-6.253-6.262-3.454 0-6.253 2.804-6.253 6.262 0 3.459 2.8 6.262 6.253 6.262zm.087-10.958c2.638 0 4.777 2.142 4.777 4.783 0 2.642-2.139 4.784-4.777 4.784-.247 0-.49-.02-.728-.055 1.423-.966 2.378-2.761 2.378-4.816 0-1.955-.865-3.674-2.173-4.667.17-.02.346-.03.523-.03z"/>
    </g>
</svg>
