<svg xmlns="http://www.w3.org/2000/svg" xmlns:xlink="http://www.w3.org/1999/xlink" width="37" height="36" viewBox="0 0 37 36">
    <defs>
        <linearGradient id="zhy38ka0xc" x1="50%" x2="50%" y1="0%" y2="98.711%">
            <stop offset="0%" stop-color="#0C69C8"/>
            <stop offset="100%" stop-color="#0180C7"/>
        </linearGradient>
        <filter id="19w19r3s3a" width="200.7%" height="200.6%" x="-50.4%" y="-50.3%" filterUnits="objectBoundingBox">
            <feOffset in="SourceAlpha" result="shadowOffsetOuter1"/>
            <feGaussianBlur in="shadowOffsetOuter1" result="shadowBlurOuter1" stdDeviation="4.5"/>
            <feColorMatrix in="shadowBlurOuter1" values="0 0 0 0 0.0274509804 0 0 0 0 0.42745098 0 0 0 0 0.752941176 0 0 0 0.7 0"/>
        </filter>
        <rect id="tvyegis7db" width="26.8" height="26.837" x="0" y="0" rx="13.4"/>
    </defs>
    <g fill="none" fill-rule="evenodd" transform="translate(4.907 4.63)">
        <use fill="#000" filter="url(#19w19r3s3a)" xlink:href="#tvyegis7db"/>
        <use fill="url(#zhy38ka0xc)" xlink:href="#tvyegis7db"/>
        <path fill="#FFF" d="M14.54 6.262c.508 0 .401.634.373.909-.019.183-.205.704-.56 1.562-.052.2-.078.34-.078.423 3.01.23 5.378 2.694 5.378 5.7 0 3.158-2.614 5.719-5.839 5.719-2.646 0-4.88-1.724-5.598-4.087-.014-.07-.025-.135-.034-.198-.075-.55-.075-.93.112-.863.103.038.309.722.618 1.282.25.453.618.812.66.79.05-.026-.213-.366-.394-.691-.152-.272-.256-.554-.119-.59.166-.044.52.512.913.95.32.355.7.612.754.584.067-.034-.167-.316-.324-.584-.127-.217-.236-.394-.13-.459.228-.138.896.761 1.003.671.106-.09-.22-.496.06-.535.094-.013.28.133.621.294.405.3.91.478 1.456.478 1.334 0 2.416-1.06 2.416-2.366 0-.981-.61-1.822-1.477-2.181-.074.153-.158.259-.254.317-.284.174-.241.12-.706.214-.31.063-2.195.492-5.656 1.287-.257.025-.44-.017-.546-.127-.107-.109-.01-.433.29-.971.93-1.679 1.524-2.645 1.783-2.898.165-.16 1.508-1.053 2.888-2.258.45-.392 1.241-1.127 1.712-1.716.236-.294.327-.656.678-.656zm-3.157 4.876c-.452.301-.77.54-.956.717-.186.176-.433.476-.74.898.572.035 1.016-.097 1.331-.397.315-.3.437-.706.365-1.218z"/>
    </g>
</svg>
