<svg xmlns="http://www.w3.org/2000/svg" xmlns:xlink="http://www.w3.org/1999/xlink" width="37" height="36" viewBox="0 0 37 36">
    <defs>
        <linearGradient id="kmsid1souc" x1="50%" x2="50%" y1="0%" y2="98.711%">
            <stop offset="0%" stop-color="#CE4265"/>
            <stop offset="100%" stop-color="#E74347"/>
        </linearGradient>
        <filter id="4z41gmkbfa" width="200.7%" height="200.6%" x="-50.4%" y="-50.3%" filterUnits="objectBoundingBox">
            <feOffset in="SourceAlpha" result="shadowOffsetOuter1"/>
            <feGaussianBlur in="shadowOffsetOuter1" result="shadowBlurOuter1" stdDeviation="4.5"/>
            <feColorMatrix in="shadowBlurOuter1" values="0 0 0 0 0.831372549 0 0 0 0 0.266666667 0 0 0 0 0.364705882 0 0 0 0.7 0"/>
        </filter>
        <rect id="p4xaf3jmqb" width="26.8" height="26.837" x="0" y="0" rx="13.4"/>
    </defs>
    <g fill="none" fill-rule="evenodd" transform="translate(4.907 4.673)">
        <use fill="#000" filter="url(#4z41gmkbfa)" xlink:href="#p4xaf3jmqb"/>
        <use fill="url(#kmsid1souc)" xlink:href="#p4xaf3jmqb"/>
        <path fill="#FFF" d="M10.444 7.156c.52 0 .979.27 1.242.677l.122-.006c.096 0 .19.01.28.027.27-.291.656-.474 1.085-.474.609 0 1.132.368 1.358.894h.006c.105 0 .208.012.307.033.236-.162.522-.256.83-.256.64 0 1.185.407 1.39.976.112.037.218.089.316.151.23-.147.502-.232.795-.232.817 0 1.478.661 1.478 1.478v4.448c0 3.15-2.8 5.703-6.253 5.703-3.454 0-6.253-2.553-6.253-5.703 0-1.516.649-2.895 1.707-3.916-.01 2.012.038 3.005.146 2.98.227-.052.23-1.938.012-5.66.159-.644.74-1.12 1.432-1.12z"/>
    </g>
</svg>
