<svg xmlns="http://www.w3.org/2000/svg" xmlns:xlink="http://www.w3.org/1999/xlink" width="37" height="37" viewBox="0 0 37 37">
    <defs>
        <linearGradient id="8gr5cfwv4c" x1="50%" x2="50%" y1="0%" y2="100%">
            <stop offset="0%" stop-color="#F66F71"/>
            <stop offset="100%" stop-color="#FE9F92"/>
        </linearGradient>
        <filter id="xb47t6r9qa" width="200.7%" height="200.6%" x="-50.4%" y="-50.3%" filterUnits="objectBoundingBox">
            <feOffset in="SourceAlpha" result="shadowOffsetOuter1"/>
            <feGaussianBlur in="shadowOffsetOuter1" result="shadowBlurOuter1" stdDeviation="4.5"/>
            <feColorMatrix in="shadowBlurOuter1" values="0 0 0 0 0.97254902 0 0 0 0 0.48627451 0 0 0 0 0.478431373 0 0 0 0.7 0"/>
        </filter>
        <rect id="p7n2a9h7jb" width="26.8" height="26.837" x="0" y="0" rx="13.4"/>
    </defs>
    <g fill="none" fill-rule="evenodd" transform="translate(4.907 4.806)">
        <use fill="#000" filter="url(#xb47t6r9qa)" xlink:href="#p7n2a9h7jb"/>
        <use fill="url(#8gr5cfwv4c)" xlink:href="#p7n2a9h7jb"/>
        <path fill="#FFF" d="M18.29 17.557c-1.05.844-2.623 1.092-4.715.742-2.38-.398-3.65-3.026-3.65-4.438 0-3.35 2.475-4.112 4.149-4.112 1.673 0 2.765 1.634 2.765 2.9 0 1.264-.893 2.37-2.284 2.37-1.39 0-1.802-.977-1.802-1.876 0-.898.726-1.215 1.388-1.215.662 0 .89.566.89 1.053 0 .486-.378.66-.692.66-.315 0-.346-.158-.466-.325-.12-.167.153-.8-.298-.8-.3 0-.479.243-.535.727.11.935.615 1.395 1.515 1.379 1.35-.025 1.991-1.07 1.805-2.105-.186-1.035-1.19-2.135-2.95-1.913-1.76.222-2.48 2.004-2.162 3.907.317 1.904 2.594 3.007 4.385 2.61 1.79-.397 3.574-1.695 3.574-4.986 0-3.291-2.847-5.27-6.241-4.944-3.394.326-5.501 3.298-5.367 6.868.135 3.57 3.519 5.515 6.38 5.616 1.907.066 3.445-.453 4.614-1.559.263-.234.343-.443.24-.627-.103-.183-.284-.16-.542.068z"/>
    </g>
</svg>
