<svg xmlns="http://www.w3.org/2000/svg" xmlns:xlink="http://www.w3.org/1999/xlink" width="40" height="40" viewBox="0 0 40 40">
    <defs>
        <linearGradient id="y8xw7rgjac" x1="50%" x2="50%" y1="0%" y2="100%">
            <stop offset="0%" stop-color="#4A90DD"/>
            <stop offset="100%" stop-color="#6CBDE4"/>
        </linearGradient>
        <filter id="87rj78tjya" width="200%" height="200%" x="-50%" y="-50%" filterUnits="objectBoundingBox">
            <feOffset in="SourceAlpha" result="shadowOffsetOuter1"/>
            <feGaussianBlur in="shadowOffsetOuter1" result="shadowBlurOuter1" stdDeviation="5"/>
            <feColorMatrix in="shadowBlurOuter1" values="0 0 0 0 0.333333333 0 0 0 0 0.619607843 0 0 0 0 0.874509804 0 0 0 0.7 0"/>
        </filter>
        <rect id="89uh2bebab" width="30" height="30" x="0" y="0" rx="15"/>
    </defs>
    <g fill="none" fill-rule="evenodd" transform="translate(5 5)">
        <use fill="#000" filter="url(#87rj78tjya)" xlink:href="#89uh2bebab"/>
        <use fill="url(#y8xw7rgjac)" xlink:href="#89uh2bebab"/>
        <path fill="#FFF" d="M14.73 8.078c.233-.149.542-.08.691.152l.258.405C18.56 13.185 20 16.314 20 18.019 20 20.769 17.761 23 15 23s-5-2.23-5-4.981c0-1.755 1.526-5.018 4.579-9.79.039-.06.09-.112.152-.151zm-2.667 9.96c-.289 1.873.412 2.995 2.103 3.365 1.692.37 3.02-.088 3.985-1.376-1.355.537-2.593.623-3.713.257-1.121-.367-1.913-1.116-2.375-2.247z"/>
    </g>
</svg>
