<svg xmlns="http://www.w3.org/2000/svg" xmlns:xlink="http://www.w3.org/1999/xlink" width="120" height="40" viewBox="0 0 120 40">
    <defs>
        <filter id="5obbr5x5na" width="127.3%" height="200%" x="-13.6%" y="-50%" filterUnits="objectBoundingBox">
            <feOffset in="SourceAlpha" result="shadowOffsetOuter1"/>
            <feGaussianBlur in="shadowOffsetOuter1" result="shadowBlurOuter1" stdDeviation="5"/>
            <feColorMatrix in="shadowBlurOuter1" values="0 0 0 0 0.37254902 0 0 0 0 0.376470588 0 0 0 0 0.42745098 0 0 0 0.7 0"/>
        </filter>
        <rect id="jwrerpnvzb" width="110" height="30" x="0" y="0" rx="15"/>
    </defs>
    <g fill="none" fill-rule="evenodd" transform="translate(5 5)">
        <use fill="#000" filter="url(#5obbr5x5na)" xlink:href="#jwrerpnvzb"/>
        <use fill="#5F606D" xlink:href="#jwrerpnvzb"/>
        <text fill="#FFF" font-family="Avenir-Heavy, Avenir" font-size="12" font-weight="600">
            <tspan x="46.724" y="19">DARK</tspan>
        </text>
        <path fill="#FFF" d="M21 22c3.866 0 7-3.134 7-7s-3.134-7-7-7-7 3.134-7 7 3.134 7 7 7zm.097-12.25c2.953 0 5.347 2.394 5.347 5.347 0 2.953-2.394 5.347-5.347 5.347-.277 0-.55-.02-.815-.061 1.592-1.078 2.662-3.085 2.662-5.383 0-2.186-.968-4.109-2.433-5.218.192-.021.388-.032.586-.032z"/>
    </g>
</svg>
