<svg xmlns="http://www.w3.org/2000/svg" xmlns:xlink="http://www.w3.org/1999/xlink" width="120" height="40" viewBox="0 0 120 40">
    <defs>
        <filter id="46jsxh69ha" width="127.3%" height="200%" x="-13.6%" y="-50%" filterUnits="objectBoundingBox">
            <feOffset in="SourceAlpha" result="shadowOffsetOuter1"/>
            <feGaussianBlur in="shadowOffsetOuter1" result="shadowBlurOuter1" stdDeviation="5"/>
            <feColorMatrix in="shadowBlurOuter1" values="0 0 0 0 0.0274509804 0 0 0 0 0.450980392 0 0 0 0 0.780392157 0 0 0 0.7 0"/>
        </filter>
        <rect id="ny31qg0nkb" width="110" height="30" x="0" y="0" rx="15"/>
    </defs>
    <g fill="none" fill-rule="evenodd" transform="translate(5 5)">
        <use fill="#000" filter="url(#46jsxh69ha)" xlink:href="#ny31qg0nkb"/>
        <use fill="#0773C7" xlink:href="#ny31qg0nkb"/>
        <text fill="#FFF" font-family="Avenir-Heavy, Avenir" font-size="12" font-weight="600">
            <tspan x="36.392" y="19">DRAGON</tspan>
        </text>
        <path fill="#FFF" d="M22.276 6c.569 0 .45.709.418 1.016-.021.205-.23.787-.626 1.746-.06.224-.089.382-.089.474 3.37.255 6.021 3.01 6.021 6.371C28 19.137 25.074 22 21.464 22c-2.96 0-5.46-1.924-6.265-4.563-.017-.078-.03-.154-.04-.227-.084-.614-.084-1.04.125-.964.115.042.346.806.692 1.433.28.506.692.907.739.883.057-.03-.238-.41-.441-.773-.17-.304-.286-.62-.133-.66.185-.048.582.572 1.022 1.062.358.398.782.685.843.654.076-.038-.186-.354-.362-.654-.143-.241-.264-.44-.145-.512.254-.155 1.003.85 1.122.75.12-.1-.246-.555.067-.599.105-.014.314.149.695.329.454.336 1.018.534 1.63.534 1.494 0 2.705-1.184 2.705-2.645 0-1.096-.682-2.037-1.654-2.438-.082.173-.177.29-.284.355-.318.194-.27.134-.79.24-.347.07-2.457.549-6.331 1.437-.288.028-.492-.019-.612-.14-.12-.123-.011-.485.325-1.087 1.04-1.876 1.706-2.956 1.996-3.239.185-.18 1.688-1.177 3.233-2.524.503-.438 1.39-1.26 1.916-1.918.264-.33.366-.734.759-.734zm-3.534 5.451c-.505.336-.862.603-1.07.801-.208.198-.484.532-.83 1.004.642.04 1.139-.108 1.492-.444.353-.335.489-.79.408-1.361z"/>
    </g>
</svg>
