<svg xmlns="http://www.w3.org/2000/svg" xmlns:xlink="http://www.w3.org/1999/xlink" width="120" height="40" viewBox="0 0 120 40">
    <defs>
        <filter id="8me72khmma" width="127.3%" height="200%" x="-13.6%" y="-50%" filterUnits="objectBoundingBox">
            <feOffset in="SourceAlpha" result="shadowOffsetOuter1"/>
            <feGaussianBlur in="shadowOffsetOuter1" result="shadowBlurOuter1" stdDeviation="5"/>
            <feColorMatrix in="shadowBlurOuter1" values="0 0 0 0 0.97254902 0 0 0 0 0.647058824 0 0 0 0 0.309803922 0 0 0 0.7 0"/>
        </filter>
        <rect id="1eszxfztxb" width="110" height="30" x="0" y="0" rx="15"/>
    </defs>
    <g fill="none" fill-rule="evenodd" transform="translate(5 5)">
        <use fill="#000" filter="url(#8me72khmma)" xlink:href="#1eszxfztxb"/>
        <use fill="#F8A54F" xlink:href="#1eszxfztxb"/>
        <text fill="#FFF" font-family="Avenir-Heavy, Avenir" font-size="12" font-weight="600">
            <tspan x="50.942" y="19">FIRE</tspan>
        </text>
        <path fill="#FFF" d="M19.333 7c.898.791 1.472 1.698 1.722 2.72.376 1.532-.868 3.62.694 3.538 1.041-.055 1.11-.885.204-2.49 2.362 1.241 3.455 2.947 3.279 5.119-.177 2.17-1.468 3.503-3.873 3.997.629-.517 1.004-.998 1.126-1.444.123-.446.065-1.128-.172-2.045-.172.747-.392 1.259-.66 1.535-.343.353-.763.597-1.364.662.49-.24.829-.74.829-1.316 0-.811-.669-1.468-1.494-1.468s-1.493.657-1.493 1.468c0 .221.05.43.139.62-.343-.268-.542-.625-.597-1.07-.384 1.594-.047 2.766 1.011 3.517 1.058.75 2.624.802 4.697.158-2.966 2.087-5.55 1.995-7.747-.277-1.894-1.957-2.141-4.224-.742-6.8-.06.238-.09.497-.09.774s.075.522.225.733c.449-.946.848-1.611 1.197-1.996.878-.966 2.149-1.61 2.647-2.167.797-.89.95-2.146.462-3.768z"/>
    </g>
</svg>
