<svg xmlns="http://www.w3.org/2000/svg" xmlns:xlink="http://www.w3.org/1999/xlink" width="120" height="40" viewBox="0 0 120 40">
    <defs>
        <filter id="0cdqa4f4na" width="127.3%" height="200%" x="-13.6%" y="-50%" filterUnits="objectBoundingBox">
            <feOffset in="SourceAlpha" result="shadowOffsetOuter1"/>
            <feGaussianBlur in="shadowOffsetOuter1" result="shadowBlurOuter1" stdDeviation="5"/>
            <feColorMatrix in="shadowBlurOuter1" values="0 0 0 0 0.709803922 0 0 0 0 0.388235294 0 0 0 0 0.807843137 0 0 0 0.7 0"/>
        </filter>
        <rect id="8nhwlrlczb" width="110" height="30" x="0" y="0" rx="15"/>
    </defs>
    <g fill="none" fill-rule="evenodd" transform="translate(5 5)">
        <use fill="#000" filter="url(#0cdqa4f4na)" xlink:href="#8nhwlrlczb"/>
        <use fill="#B563CE" xlink:href="#8nhwlrlczb"/>
        <text fill="#FFF" font-family="Avenir-Heavy, Avenir" font-size="12" font-weight="600">
            <tspan x="39.95" y="19">POISON</tspan>
        </text>
        <path fill="#FFF" d="M21.5 7c4.142 0 7.5 2.964 7.5 6.62 0 1.946-.952 3.696-2.466 4.907.063.26.098.537.098.825 0 1.463-.884 2.648-1.974 2.648-.646 0-1.22-.416-1.58-1.06-.358.644-.932 1.06-1.578 1.06-.709 0-1.33-.501-1.678-1.254-.347.753-.969 1.254-1.677 1.254-1.09 0-1.974-1.185-1.974-2.648 0-.338.047-.661.133-.958C14.884 17.19 14 15.496 14 13.62 14 9.964 17.358 7 21.5 7zm-.099 3.39c-2.452 0-4.44 1.505-4.44 3.36 0 1.857 1.988 3.362 4.44 3.362 2.453 0 4.441-1.505 4.441-3.361 0-1.856-1.988-3.36-4.44-3.36z"/>
    </g>
</svg>
