<svg xmlns="http://www.w3.org/2000/svg" xmlns:xlink="http://www.w3.org/1999/xlink" width="120" height="40" viewBox="0 0 120 40">
    <defs>
        <filter id="pdxfintf5a" width="127.3%" height="200%" x="-13.6%" y="-50%" filterUnits="objectBoundingBox">
            <feOffset in="SourceAlpha" result="shadowOffsetOuter1"/>
            <feGaussianBlur in="shadowOffsetOuter1" result="shadowBlurOuter1" stdDeviation="5"/>
            <feColorMatrix in="shadowBlurOuter1" values="0 0 0 0 0.97254902 0 0 0 0 0.48627451 0 0 0 0 0.478431373 0 0 0 0.7 0"/>
        </filter>
        <rect id="hpbnt0qrjb" width="110" height="30" x="0" y="0" rx="15"/>
    </defs>
    <g fill="none" fill-rule="evenodd" transform="translate(5 5)">
        <use fill="#000" filter="url(#pdxfintf5a)" xlink:href="#hpbnt0qrjb"/>
        <use fill="#F87C7A" xlink:href="#hpbnt0qrjb"/>
        <text fill="#FFF" font-family="Avenir-Heavy, Avenir" font-size="12" font-weight="600">
            <tspan x="38.276" y="19">PSYCHIC</tspan>
        </text>
        <path fill="#FFF" d="M25.975 19.626c-1.177.944-2.937 1.22-5.279.83-2.665-.444-4.086-3.382-4.086-4.962 0-3.744 2.77-4.596 4.644-4.596s3.096 1.827 3.096 3.24c0 1.415-1 2.652-2.557 2.652-1.556 0-2.017-1.093-2.017-2.097 0-1.005.812-1.359 1.554-1.359.741 0 .995.633.995 1.177s-.422.739-.774.739c-.352 0-.387-.178-.522-.365-.135-.186.172-.893-.333-.893-.336 0-.536.271-.599.812.123 1.046.688 1.56 1.696 1.541 1.512-.027 2.229-1.196 2.02-2.353-.208-1.157-1.33-2.386-3.302-2.138-1.97.249-2.775 2.24-2.42 4.368.354 2.128 2.904 3.36 4.908 2.917C25.004 18.696 27 17.245 27 13.565c0-3.679-3.186-5.89-6.986-5.526-3.8.365-6.158 3.686-6.007 7.678.15 3.99 3.938 6.165 7.14 6.277 2.135.074 3.857-.506 5.166-1.742.295-.263.384-.496.269-.701-.116-.205-.318-.18-.607.075z"/>
    </g>
</svg>
