<svg xmlns="http://www.w3.org/2000/svg" xmlns:xlink="http://www.w3.org/1999/xlink" width="120" height="40" viewBox="0 0 120 40">
    <defs>
        <filter id="3c11d19v3a" width="127.3%" height="200%" x="-13.6%" y="-50%" filterUnits="objectBoundingBox">
            <feOffset in="SourceAlpha" result="shadowOffsetOuter1"/>
            <feGaussianBlur in="shadowOffsetOuter1" result="shadowBlurOuter1" stdDeviation="5"/>
            <feColorMatrix in="shadowBlurOuter1" values="0 0 0 0 0.333333333 0 0 0 0 0.619607843 0 0 0 0 0.874509804 0 0 0 0.7 0"/>
        </filter>
        <rect id="acqqm0lhzb" width="110" height="30" x="0" y="0" rx="15"/>
    </defs>
    <g fill="none" fill-rule="evenodd" transform="translate(5 5)">
        <use fill="#000" filter="url(#3c11d19v3a)" xlink:href="#acqqm0lhzb"/>
        <use fill="#559EDF" xlink:href="#acqqm0lhzb"/>
        <text fill="#FFF" font-family="Avenir-Heavy, Avenir" font-size="12" font-weight="600">
            <tspan x="42.392" y="19">WATER</tspan>
        </text>
        <path fill="#FFF" d="M18.73 7.078c.233-.149.542-.08.691.152l.258.405C22.56 12.185 24 15.314 24 17.019 24 19.769 21.761 22 19 22s-5-2.23-5-4.981c0-1.755 1.526-5.018 4.579-9.79.039-.06.09-.112.152-.151zm-2.667 9.96c-.289 1.873.412 2.995 2.103 3.365 1.692.37 3.02-.088 3.985-1.376-1.355.537-2.593.623-3.713.257-1.121-.367-1.913-1.116-2.375-2.247z"/>
    </g>
</svg>
